<svg id="_x31_" enable-background="new 0 0 24 24" height="512" viewBox="0 0 24 24" width="512" xmlns="http://www.w3.org/2000/svg"><g><g><g><path d="m7.332 24c-.039 0-.077-.001-.116-.004-.436-.034-.833-.255-1.091-.608l-2.138-2.932c-.067-.092-.148-.173-.242-.243l-3.137-2.309c-.352-.259-.572-.657-.605-1.093-.033-.435.125-.862.434-1.17.462-.462 1.148-.591 1.745-.33l2.551 1.115 4.963-5.348c.118-.127.172-.299.147-.472s-.124-.323-.273-.413l-8.332-4.41c-.441-.265-.715-.688-.774-1.172s.105-.96.45-1.306c.33-.33.797-.468 1.256-.368l12.158 2.575c.203.046.41-.02.547-.168l4.358-4.63c.417-.442 1.133-.701 1.965-.714.846-.023 1.653.248 2.104.699.45.45.711 1.237.699 2.104-.012.832-.272 1.548-.713 1.965l-4.643 4.376c-.154.143-.218.356-.17.556l2.795 12.294c.109.461-.027.941-.365 1.279-.343.343-.818.507-1.298.451-.482-.057-.904-.326-1.158-.74l-4.644-8.584c-.077-.124-.227-.221-.398-.245-.171-.026-.342.031-.469.148l-5.337 4.96 1.114 2.552c.261.599.132 1.284-.329 1.746-.281.283-.66.439-1.054.439zm-5.781-7.822c-.149 0-.295.059-.406.169-.104.104-.155.242-.144.388.011.147.082.275.2.362l3.138 2.31c.177.131.33.285.457.459l2.137 2.931c.086.118.214.189.36.201.147.009.282-.039.385-.143.168-.169.216-.42.12-.639l-1.255-2.876c-.084-.195-.038-.422.118-.566l5.597-5.202c.347-.323.815-.469 1.285-.406.469.064.88.333 1.128.736l4.644 8.584c.079.127.233.226.409.246.171.02.349-.039.474-.165.089-.09.127-.223.098-.347l-2.796-12.294c-.128-.545.047-1.126.459-1.511l4.642-4.375c.238-.225.391-.704.399-1.251.008-.584-.151-1.127-.406-1.382-.255-.256-.815-.426-1.382-.407-.546.008-1.026.161-1.25.399l-4.356 4.628c-.376.403-.944.582-1.488.462l-12.158-2.574c-.125-.028-.25.009-.338.097-.126.127-.186.3-.165.478.022.177.122.332.274.424l8.332 4.41c.432.259.704.671.771 1.143s-.081.942-.404 1.292l-5.205 5.608c-.145.156-.372.203-.567.118l-2.876-1.257c-.074-.034-.153-.05-.231-.05zm21.393-11.773h.01z"/></g></g></g></svg>